<svg width="134" height="124" viewBox="0 0 134 124" fill="none" xmlns="http://www.w3.org/2000/svg">
<path d="M40.6526 58.8047V50.284H3L11.5997 122H40.6526V116.32M40.6526 58.8047H45.0687L61.8032 26.3787V2H68.7759C74.3541 3.6568 82.117 11.2781 82.4889 24.7219C79.6998 38.1657 77.4531 47.3649 76.6783 50.284H124.325C126.959 50.5207 132.181 52.5562 131.995 58.8047C131.763 66.6154 125.022 68.0355 121.071 68.2722C123.86 68.1933 129.439 69.8343 129.439 77.0296C129.439 86.0237 121.536 85.787 118.05 85.787C120.994 85.9448 126.882 88.0592 126.882 95.2544C126.882 104.249 118.515 104.249 111.774 103.775C114.796 104.17 120.792 106.663 120.606 113.479C120.42 120.296 114.641 122 111.774 122H55.5278C53.4359 121.763 49.2523 120.296 49.2523 116.32H40.6526M40.6526 58.8047V116.32" stroke="white" stroke-width="4"/>
</svg>
