<svg width="155" height="49" viewBox="0 0 155 49" fill="none" xmlns="http://www.w3.org/2000/svg">
<rect x="1" y="8.90323" width="67" height="39.0968" stroke="white" stroke-width="2"/>
<path d="M33.9163 23.722L39.846 17.7069L48.2587 17.68L54.2318 23.6624L54.2586 32.1499L48.3289 38.1649L39.9162 38.1919L33.943 32.2094L33.9163 23.722Z" stroke="white" stroke-width="2"/>
<path d="M29.759 16.6709L30.8315 15.583L32.3532 15.5781L33.4353 16.6619L33.4402 18.1996L32.3677 19.2876L30.846 19.2925L29.7639 18.2086L29.759 16.6709Z" stroke="white"/>
<path fill-rule="evenodd" clip-rule="evenodd" d="M34.43 2H54.58V6.32258H56.58V2V0H54.58H34.43H32.43V2V6.32258H34.43V2Z" fill="white"/>
<path fill-rule="evenodd" clip-rule="evenodd" d="M7.27834 5.61761L7.41191 5.47742H19.045V6.02957L7.27834 5.61761ZM21.045 6.32259V6.09959V5.47742V3.47742H19.045H6.55499L4.6051 5.52402L3.84427 6.32259H21.045Z" fill="white"/>
<path d="M73.6324 31V8.6H76.0004V28.952H88.5444V31H73.6324ZM101.831 31.192C100.145 31.192 98.5773 30.9147 97.1266 30.36C95.6973 29.784 94.4493 28.984 93.3826 27.96C92.3373 26.9147 91.516 25.7093 90.9186 24.344C90.3426 22.9573 90.0546 21.4427 90.0546 19.8C90.0546 18.1573 90.3426 16.6533 90.9186 15.288C91.516 13.9013 92.3373 12.696 93.3826 11.672C94.4493 10.6267 95.6973 9.82667 97.1266 9.272C98.556 8.696 100.124 8.408 101.831 8.408C103.516 8.408 105.073 8.696 106.503 9.272C107.932 9.82667 109.169 10.616 110.215 11.64C111.281 12.664 112.103 13.8693 112.679 15.256C113.276 16.6427 113.575 18.1573 113.575 19.8C113.575 21.4427 113.276 22.9573 112.679 24.344C112.103 25.7307 111.281 26.936 110.215 27.96C109.169 28.984 107.932 29.784 106.503 30.36C105.073 30.9147 103.516 31.192 101.831 31.192ZM101.831 29.08C103.175 29.08 104.412 28.856 105.543 28.408C106.695 27.9387 107.687 27.288 108.519 26.456C109.372 25.6027 110.033 24.6213 110.503 23.512C110.972 22.3813 111.207 21.144 111.207 19.8C111.207 18.456 110.972 17.2293 110.503 16.12C110.033 14.9893 109.372 14.008 108.519 13.176C107.687 12.3227 106.695 11.672 105.543 11.224C104.412 10.7547 103.175 10.52 101.831 10.52C100.487 10.52 99.2386 10.7547 98.0866 11.224C96.9346 11.672 95.932 12.3227 95.0786 13.176C94.2466 14.008 93.5853 14.9893 93.0946 16.12C92.6253 17.2293 92.3906 18.456 92.3906 19.8C92.3906 21.1227 92.6253 22.3493 93.0946 23.48C93.5853 24.6107 94.2466 25.6027 95.0786 26.456C95.932 27.288 96.9346 27.9387 98.0866 28.408C99.2386 28.856 100.487 29.08 101.831 29.08ZM120.994 19.448H132.834V21.496H120.994V19.448ZM121.25 31H118.882V8.6H134.242V10.648H121.25V31ZM143.641 31V10.648H135.769V8.6H153.881V10.648H146.009V31H143.641Z" fill="white"/>
<line x1="74.0001" y1="33.4963" x2="154" y2="33.5082" stroke="white"/>
<path d="M77.934 45.065C77.3447 45.065 76.8117 44.9307 76.335 44.662C75.8584 44.3847 75.477 43.9903 75.191 43.479C74.9137 42.959 74.775 42.3263 74.775 41.581C74.775 40.8357 74.9137 40.2073 75.191 39.696C75.4684 39.176 75.8454 38.7817 76.322 38.513C76.7987 38.2443 77.336 38.11 77.934 38.11C78.584 38.11 79.1647 38.2573 79.676 38.552C80.196 38.838 80.6034 39.2453 80.898 39.774C81.1927 40.294 81.34 40.8963 81.34 41.581C81.34 42.2743 81.1927 42.881 80.898 43.401C80.6034 43.921 80.196 44.3283 79.676 44.623C79.1647 44.9177 78.584 45.065 77.934 45.065ZM74.411 47.522V38.175H75.295V40.229L75.204 41.594L75.334 42.972V47.522H74.411ZM77.869 44.246C78.3544 44.246 78.7877 44.1377 79.169 43.921C79.5504 43.6957 79.8537 43.3837 80.079 42.985C80.3044 42.5777 80.417 42.1097 80.417 41.581C80.417 41.0523 80.3044 40.5887 80.079 40.19C79.8537 39.7913 79.5504 39.4793 79.169 39.254C78.7877 39.0287 78.3544 38.916 77.869 38.916C77.3837 38.916 76.946 39.0287 76.556 39.254C76.1747 39.4793 75.8714 39.7913 75.646 40.19C75.4294 40.5887 75.321 41.0523 75.321 41.581C75.321 42.1097 75.4294 42.5777 75.646 42.985C75.8714 43.3837 76.1747 43.6957 76.556 43.921C76.946 44.1377 77.3837 44.246 77.869 44.246ZM86.7056 38.11C87.2602 38.11 87.7456 38.2183 88.1616 38.435C88.5862 38.643 88.9156 38.9637 89.1496 39.397C89.3922 39.8303 89.5136 40.3763 89.5136 41.035V45H88.5906V41.126C88.5906 40.4067 88.4086 39.865 88.0446 39.501C87.6892 39.1283 87.1866 38.942 86.5366 38.942C86.0512 38.942 85.6266 39.0417 85.2626 39.241C84.9072 39.4317 84.6299 39.7133 84.4306 40.086C84.2399 40.45 84.1446 40.892 84.1446 41.412V45H83.2216V35.354H84.1446V40.047L83.9626 39.696C84.1792 39.202 84.5259 38.8163 85.0026 38.539C85.4792 38.253 86.0469 38.11 86.7056 38.11ZM94.7887 45.065C94.1301 45.065 93.5364 44.9177 93.0077 44.623C92.4877 44.3197 92.0761 43.908 91.7727 43.388C91.4694 42.8593 91.3177 42.257 91.3177 41.581C91.3177 40.8963 91.4694 40.294 91.7727 39.774C92.0761 39.254 92.4877 38.8467 93.0077 38.552C93.5277 38.2573 94.1214 38.11 94.7887 38.11C95.4647 38.11 96.0627 38.2573 96.5827 38.552C97.1114 38.8467 97.5231 39.254 97.8177 39.774C98.1211 40.294 98.2727 40.8963 98.2727 41.581C98.2727 42.257 98.1211 42.8593 97.8177 43.388C97.5231 43.908 97.1114 44.3197 96.5827 44.623C96.0541 44.9177 95.4561 45.065 94.7887 45.065ZM94.7887 44.246C95.2827 44.246 95.7204 44.1377 96.1017 43.921C96.4831 43.6957 96.7821 43.3837 96.9987 42.985C97.2241 42.5777 97.3367 42.1097 97.3367 41.581C97.3367 41.0437 97.2241 40.5757 96.9987 40.177C96.7821 39.7783 96.4831 39.4707 96.1017 39.254C95.7204 39.0287 95.2871 38.916 94.8017 38.916C94.3164 38.916 93.8831 39.0287 93.5017 39.254C93.1204 39.4707 92.8171 39.7783 92.5917 40.177C92.3664 40.5757 92.2537 41.0437 92.2537 41.581C92.2537 42.1097 92.3664 42.5777 92.5917 42.985C92.8171 43.3837 93.1204 43.6957 93.5017 43.921C93.8831 44.1377 94.3121 44.246 94.7887 44.246ZM102.315 45.065C101.674 45.065 101.18 44.8917 100.833 44.545C100.486 44.1983 100.313 43.7087 100.313 43.076V36.667H101.236V43.024C101.236 43.4227 101.336 43.7303 101.535 43.947C101.743 44.1637 102.038 44.272 102.419 44.272C102.826 44.272 103.164 44.155 103.433 43.921L103.758 44.584C103.576 44.7487 103.355 44.87 103.095 44.948C102.844 45.026 102.584 45.065 102.315 45.065ZM99.0911 38.942V38.175H103.316V38.942H99.0911ZM107.979 45.065C107.32 45.065 106.727 44.9177 106.198 44.623C105.678 44.3197 105.266 43.908 104.963 43.388C104.66 42.8593 104.508 42.257 104.508 41.581C104.508 40.8963 104.66 40.294 104.963 39.774C105.266 39.254 105.678 38.8467 106.198 38.552C106.718 38.2573 107.312 38.11 107.979 38.11C108.655 38.11 109.253 38.2573 109.773 38.552C110.302 38.8467 110.713 39.254 111.008 39.774C111.311 40.294 111.463 40.8963 111.463 41.581C111.463 42.257 111.311 42.8593 111.008 43.388C110.713 43.908 110.302 44.3197 109.773 44.623C109.244 44.9177 108.646 45.065 107.979 45.065ZM107.979 44.246C108.473 44.246 108.911 44.1377 109.292 43.921C109.673 43.6957 109.972 43.3837 110.189 42.985C110.414 42.5777 110.527 42.1097 110.527 41.581C110.527 41.0437 110.414 40.5757 110.189 40.177C109.972 39.7783 109.673 39.4707 109.292 39.254C108.911 39.0287 108.477 38.916 107.992 38.916C107.507 38.916 107.073 39.0287 106.692 39.254C106.311 39.4707 106.007 39.7783 105.782 40.177C105.557 40.5757 105.444 41.0437 105.444 41.581C105.444 42.1097 105.557 42.5777 105.782 42.985C106.007 43.3837 106.311 43.6957 106.692 43.921C107.073 44.1377 107.502 44.246 107.979 44.246ZM115.181 45.065C114.617 45.065 114.084 44.987 113.582 44.831C113.079 44.6663 112.685 44.4627 112.399 44.22L112.815 43.492C113.092 43.7 113.447 43.882 113.881 44.038C114.314 44.1853 114.769 44.259 115.246 44.259C115.896 44.259 116.364 44.1593 116.65 43.96C116.936 43.752 117.079 43.479 117.079 43.141C117.079 42.8897 116.996 42.6947 116.832 42.556C116.676 42.4087 116.468 42.3003 116.208 42.231C115.948 42.153 115.657 42.088 115.337 42.036C115.016 41.984 114.695 41.9233 114.375 41.854C114.063 41.7847 113.777 41.685 113.517 41.555C113.257 41.4163 113.044 41.23 112.88 40.996C112.724 40.762 112.646 40.45 112.646 40.06C112.646 39.6873 112.75 39.3537 112.958 39.059C113.166 38.7643 113.469 38.5347 113.868 38.37C114.275 38.1967 114.769 38.11 115.35 38.11C115.792 38.11 116.234 38.1707 116.676 38.292C117.118 38.4047 117.482 38.5563 117.768 38.747L117.365 39.488C117.061 39.28 116.736 39.1327 116.39 39.046C116.043 38.9507 115.696 38.903 115.35 38.903C114.734 38.903 114.279 39.0113 113.985 39.228C113.699 39.436 113.556 39.7047 113.556 40.034C113.556 40.294 113.634 40.4977 113.79 40.645C113.954 40.7923 114.167 40.9093 114.427 40.996C114.695 41.074 114.986 41.139 115.298 41.191C115.618 41.243 115.935 41.308 116.247 41.386C116.567 41.4553 116.858 41.555 117.118 41.685C117.386 41.8063 117.599 41.984 117.755 42.218C117.919 42.4433 118.002 42.7423 118.002 43.115C118.002 43.5137 117.889 43.8603 117.664 44.155C117.447 44.441 117.126 44.6663 116.702 44.831C116.286 44.987 115.779 45.065 115.181 45.065ZM121.853 45.065C121.212 45.065 120.718 44.8917 120.371 44.545C120.025 44.1983 119.851 43.7087 119.851 43.076V36.667H120.774V43.024C120.774 43.4227 120.874 43.7303 121.073 43.947C121.281 44.1637 121.576 44.272 121.957 44.272C122.365 44.272 122.703 44.155 122.971 43.921L123.296 44.584C123.114 44.7487 122.893 44.87 122.633 44.948C122.382 45.026 122.122 45.065 121.853 45.065ZM118.629 38.942V38.175H122.854V38.942H118.629ZM127.797 45.065C127.217 45.065 126.71 44.9567 126.276 44.74C125.843 44.5233 125.505 44.1983 125.262 43.765C125.028 43.3317 124.911 42.79 124.911 42.14V38.175H125.834V42.036C125.834 42.764 126.012 43.3143 126.367 43.687C126.731 44.051 127.238 44.233 127.888 44.233C128.365 44.233 128.777 44.1377 129.123 43.947C129.479 43.7477 129.747 43.4617 129.929 43.089C130.12 42.7163 130.215 42.27 130.215 41.75V38.175H131.138V45H130.254V43.128L130.397 43.466C130.181 43.9687 129.843 44.363 129.383 44.649C128.933 44.9263 128.404 45.065 127.797 45.065ZM136.428 45.065C135.778 45.065 135.193 44.9177 134.673 44.623C134.161 44.3283 133.758 43.921 133.464 43.401C133.169 42.8723 133.022 42.2657 133.022 41.581C133.022 40.8877 133.169 40.281 133.464 39.761C133.758 39.241 134.161 38.838 134.673 38.552C135.193 38.2573 135.778 38.11 136.428 38.11C137.026 38.11 137.559 38.2443 138.027 38.513C138.503 38.7817 138.88 39.176 139.158 39.696C139.444 40.2073 139.587 40.8357 139.587 41.581C139.587 42.3177 139.448 42.946 139.171 43.466C138.893 43.986 138.516 44.3847 138.04 44.662C137.572 44.9307 137.034 45.065 136.428 45.065ZM136.493 44.246C136.978 44.246 137.411 44.1377 137.793 43.921C138.183 43.6957 138.486 43.3837 138.703 42.985C138.928 42.5777 139.041 42.1097 139.041 41.581C139.041 41.0437 138.928 40.5757 138.703 40.177C138.486 39.7783 138.183 39.4707 137.793 39.254C137.411 39.0287 136.978 38.916 136.493 38.916C136.016 38.916 135.587 39.0287 135.206 39.254C134.824 39.4707 134.521 39.7783 134.296 40.177C134.07 40.5757 133.958 41.0437 133.958 41.581C133.958 42.1097 134.07 42.5777 134.296 42.985C134.521 43.3837 134.824 43.6957 135.206 43.921C135.587 44.1377 136.016 44.246 136.493 44.246ZM139.067 45V42.946L139.158 41.568L139.028 40.19V35.354H139.951V45H139.067ZM142.521 45V38.175H143.444V45H142.521ZM142.989 36.667C142.799 36.667 142.638 36.602 142.508 36.472C142.378 36.342 142.313 36.186 142.313 36.004C142.313 35.822 142.378 35.6703 142.508 35.549C142.638 35.419 142.799 35.354 142.989 35.354C143.18 35.354 143.34 35.4147 143.47 35.536C143.6 35.6573 143.665 35.809 143.665 35.991C143.665 36.1817 143.6 36.342 143.47 36.472C143.349 36.602 143.189 36.667 142.989 36.667ZM148.795 45.065C148.136 45.065 147.542 44.9177 147.014 44.623C146.494 44.3197 146.082 43.908 145.779 43.388C145.475 42.8593 145.324 42.257 145.324 41.581C145.324 40.8963 145.475 40.294 145.779 39.774C146.082 39.254 146.494 38.8467 147.014 38.552C147.534 38.2573 148.127 38.11 148.795 38.11C149.471 38.11 150.069 38.2573 150.589 38.552C151.117 38.8467 151.529 39.254 151.824 39.774C152.127 40.294 152.279 40.8963 152.279 41.581C152.279 42.257 152.127 42.8593 151.824 43.388C151.529 43.908 151.117 44.3197 150.589 44.623C150.06 44.9177 149.462 45.065 148.795 45.065ZM148.795 44.246C149.289 44.246 149.726 44.1377 150.108 43.921C150.489 43.6957 150.788 43.3837 151.005 42.985C151.23 42.5777 151.343 42.1097 151.343 41.581C151.343 41.0437 151.23 40.5757 151.005 40.177C150.788 39.7783 150.489 39.4707 150.108 39.254C149.726 39.0287 149.293 38.916 148.808 38.916C148.322 38.916 147.889 39.0287 147.508 39.254C147.126 39.4707 146.823 39.7783 146.598 40.177C146.372 40.5757 146.26 41.0437 146.26 41.581C146.26 42.1097 146.372 42.5777 146.598 42.985C146.823 43.3837 147.126 43.6957 147.508 43.921C147.889 44.1377 148.318 44.246 148.795 44.246Z" fill="white"/>
</svg>
