<svg width="163" height="120" viewBox="0 0 163 120" fill="none" xmlns="http://www.w3.org/2000/svg">
<mask id="path-1-inside-1_3_106" fill="white">
<path fill-rule="evenodd" clip-rule="evenodd" d="M162.543 0.231934H43.1611V91.2371H162.543V0.231934ZM146.932 12.0626H58.7726V79.4064H146.932V12.0626Z"/>
</mask>
<path fill-rule="evenodd" clip-rule="evenodd" d="M162.543 0.231934H43.1611V91.2371H162.543V0.231934ZM146.932 12.0626H58.7726V79.4064H146.932V12.0626Z" fill="black"/>
<path d="M43.1611 0.231934V-2.76807H40.1611V0.231934H43.1611ZM162.543 0.231934H165.543V-2.76807H162.543V0.231934ZM43.1611 91.2371H40.1611V94.2371H43.1611V91.2371ZM162.543 91.2371V94.2371H165.543V91.2371H162.543ZM58.7726 12.0626V9.0626H55.7726V12.0626H58.7726ZM146.932 12.0626H149.932V9.0626H146.932V12.0626ZM58.7726 79.4064H55.7726V82.4064H58.7726V79.4064ZM146.932 79.4064V82.4064H149.932V79.4064H146.932ZM43.1611 3.23193H162.543V-2.76807H43.1611V3.23193ZM46.1611 91.2371V0.231934H40.1611V91.2371H46.1611ZM162.543 88.2371H43.1611V94.2371H162.543V88.2371ZM159.543 0.231934V91.2371H165.543V0.231934H159.543ZM58.7726 15.0626H146.932V9.0626H58.7726V15.0626ZM61.7726 79.4064V12.0626H55.7726V79.4064H61.7726ZM146.932 76.4064H58.7726V82.4064H146.932V76.4064ZM143.932 12.0626V79.4064H149.932V12.0626H143.932Z" fill="white" mask="url(#path-1-inside-1_3_106)"/>
<mask id="path-3-inside-2_3_106" fill="white">
<path fill-rule="evenodd" clip-rule="evenodd" d="M37.6512 22.7922L0 30.4817L18.5357 119.614L135.201 95.7873H76.0555L31.4162 104.904L17.6998 38.9462L37.6512 34.8715V22.7922Z"/>
</mask>
<path fill-rule="evenodd" clip-rule="evenodd" d="M37.6512 22.7922L0 30.4817L18.5357 119.614L135.201 95.7873H76.0555L31.4162 104.904L17.6998 38.9462L37.6512 34.8715V22.7922Z" fill="black"/>
<path d="M37.6512 22.7922H40.6512V19.1176L37.0509 19.8529L37.6512 22.7922ZM0 30.4817L-0.600295 27.5424L-3.55016 28.1448L-2.93716 31.0925L0 30.4817ZM18.5357 119.614L15.5985 120.225L16.2072 123.151L19.136 122.553L18.5357 119.614ZM135.201 95.7873L135.802 98.7266L135.201 92.7873V95.7873ZM76.0555 95.7873V92.7873H75.7523L75.4552 92.848L76.0555 95.7873ZM31.4162 104.904L28.4791 105.515L29.0877 108.441L32.0165 107.843L31.4162 104.904ZM17.6998 38.9462L17.0995 36.0069L14.1496 36.6093L14.7626 39.557L17.6998 38.9462ZM37.6512 34.8715L38.2515 37.8109L40.6512 37.3208V34.8715H37.6512ZM37.0509 19.8529L-0.600295 27.5424L0.600295 33.421L38.2515 25.7316L37.0509 19.8529ZM-2.93716 31.0925L15.5985 120.225L21.4729 119.003L2.93716 29.8709L-2.93716 31.0925ZM19.136 122.553L135.802 98.7266L134.601 92.848L17.9354 116.674L19.136 122.553ZM135.201 92.7873H76.0555V98.7873H135.201V92.7873ZM32.0165 107.843L76.6558 98.7266L75.4552 92.848L30.8159 101.965L32.0165 107.843ZM14.7626 39.557L28.4791 105.515L34.3534 104.293L20.637 38.3354L14.7626 39.557ZM37.0509 31.9322L17.0995 36.0069L18.3001 41.8855L38.2515 37.8109L37.0509 31.9322ZM40.6512 34.8715V22.7922H34.6512V34.8715H40.6512Z" fill="white" mask="url(#path-3-inside-2_3_106)"/>
</svg>
