<svg width="139" height="124" viewBox="0 0 139 124" fill="none" xmlns="http://www.w3.org/2000/svg">
<rect x="1.73132" y="1.97693" width="135.769" height="120.157" rx="31.5" stroke="white" stroke-width="3"/>
<path d="M25.4036 88.1258V32.8428H49.3333C54.2824 32.8428 58.5471 33.6589 62.1273 35.291C65.7076 36.8705 68.4717 39.1608 70.4198 42.1619C72.3679 45.163 73.3419 48.7432 73.3419 52.9026C73.3419 57.0093 72.3679 60.5633 70.4198 63.5643C68.4717 66.5654 65.7076 68.882 62.1273 70.5142C58.5471 72.0937 54.2824 72.8835 49.3333 72.8835H32.5114L38.1977 67.1182V88.1258H25.4036ZM38.1977 68.5398L32.5114 62.4587H48.6225C52.5713 62.4587 55.5197 61.6163 57.4678 59.9314C59.4158 58.2466 60.3899 55.9037 60.3899 52.9026C60.3899 49.8489 59.4158 47.4796 57.4678 45.7948C55.5197 44.11 52.5713 43.2676 48.6225 43.2676H32.5114L38.1977 37.1864V68.5398Z" fill="white"/>
<path d="M96.673 88.7576C93.0402 88.7576 89.5389 88.3364 86.1693 87.494C82.8523 86.5989 80.2198 85.4933 78.2717 84.177L82.3784 75.3317C84.3265 76.5427 86.6168 77.543 89.2493 78.3328C91.9345 79.0699 94.567 79.4384 97.1469 79.4384C99.99 79.4384 101.991 79.0962 103.149 78.4118C104.36 77.7273 104.965 76.7796 104.965 75.5686C104.965 74.5683 104.492 73.8312 103.544 73.3573C102.649 72.8308 101.438 72.4359 99.911 72.1727C98.3842 71.9094 96.6994 71.6462 94.8566 71.3829C93.0665 71.1197 91.25 70.7774 89.4073 70.3562C87.5645 69.8824 85.8797 69.1979 84.3528 68.3029C82.826 67.4078 81.5887 66.1969 80.641 64.67C79.7459 63.1431 79.2984 61.1687 79.2984 58.7468C79.2984 56.0616 80.0618 53.6924 81.5887 51.639C83.1682 49.5856 85.4322 47.9798 88.3806 46.8215C91.329 45.6105 94.8566 45.005 98.9633 45.005C101.859 45.005 104.808 45.3209 107.809 45.9527C110.81 46.5845 113.311 47.5059 115.311 48.7169L111.205 57.4832C109.151 56.2722 107.072 55.4562 104.965 55.035C102.912 54.5611 100.911 54.3242 98.9633 54.3242C96.2255 54.3242 94.2248 54.6927 92.9612 55.4298C91.6976 56.1669 91.0658 57.1146 91.0658 58.273C91.0658 59.326 91.5133 60.1157 92.4084 60.6422C93.3561 61.1687 94.5933 61.5899 96.1202 61.9058C97.6471 62.2217 99.3056 62.5113 101.096 62.7746C102.938 62.9852 104.781 63.3274 106.624 63.8013C108.467 64.2751 110.125 64.9596 111.599 65.8546C113.126 66.697 114.364 67.8817 115.311 69.4085C116.259 70.8827 116.733 72.8308 116.733 75.2527C116.733 77.8853 115.943 80.2282 114.364 82.2816C112.784 84.2823 110.494 85.8618 107.493 87.0201C104.544 88.1784 100.938 88.7576 96.673 88.7576Z" fill="white"/>
</svg>
